<mxfile host="65bd71144e">
    <diagram id="rs_tKQs1MfxiiY2f-hI4" name="Page-1">
        <mxGraphModel dx="1807" dy="1993" grid="1" gridSize="10" guides="1" tooltips="1" connect="1" arrows="1" fold="1" page="1" pageScale="1" pageWidth="827" pageHeight="1169" math="0" shadow="0">
            <root>
                <mxCell id="0"/>
                <mxCell id="1" parent="0"/>
                <mxCell id="36" value="" style="rounded=0;whiteSpace=wrap;html=1;strokeColor=#FFFFFF;strokeWidth=4;fillColor=none;" vertex="1" parent="1">
                    <mxGeometry x="450.5" y="-80" width="830" height="860" as="geometry"/>
                </mxCell>
                <mxCell id="18" value="" style="rounded=0;whiteSpace=wrap;html=1;fillColor=none;strokeWidth=4;strokeColor=#4C0099;" vertex="1" parent="1">
                    <mxGeometry x="520" y="40" width="680.5" height="680" as="geometry"/>
                </mxCell>
                <mxCell id="19" value="" style="rounded=0;whiteSpace=wrap;html=1;dashed=1;fillColor=none;strokeColor=#006666;strokeWidth=3;" vertex="1" parent="1">
                    <mxGeometry x="560" y="-120" width="250" height="880" as="geometry"/>
                </mxCell>
                <mxCell id="20" value="" style="rounded=0;whiteSpace=wrap;html=1;dashed=1;fillColor=none;strokeColor=#006666;strokeWidth=3;" vertex="1" parent="1">
                    <mxGeometry x="920" y="-120" width="240" height="880" as="geometry"/>
                </mxCell>
                <mxCell id="24" value="" style="rounded=0;whiteSpace=wrap;html=1;dashed=1;fontStyle=1;fillColor=none;strokeColor=#006666;strokeWidth=2;" vertex="1" parent="1">
                    <mxGeometry x="939.99" y="282.5" width="200.01" height="195" as="geometry"/>
                </mxCell>
                <mxCell id="22" value="" style="rounded=0;whiteSpace=wrap;html=1;dashed=1;fillColor=none;strokeColor=#006666;strokeWidth=2;" vertex="1" parent="1">
                    <mxGeometry x="590" y="282.5" width="190" height="195" as="geometry"/>
                </mxCell>
                <mxCell id="44" value="" style="rounded=0;whiteSpace=wrap;html=1;strokeColor=#FF3333;strokeWidth=1;fillColor=none;dashed=1;dashPattern=8 8;" vertex="1" parent="1">
                    <mxGeometry x="620.25" y="320" width="479.75" height="120" as="geometry"/>
                </mxCell>
                <mxCell id="3" style="edgeStyle=none;html=1;" edge="1" parent="1">
                    <mxGeometry relative="1" as="geometry">
                        <mxPoint x="80" y="251.83500000000006" as="targetPoint"/>
                        <mxPoint x="20" y="251.83500000000006" as="sourcePoint"/>
                    </mxGeometry>
                </mxCell>
                <mxCell id="4" value="" style="verticalLabelPosition=bottom;html=1;verticalAlign=top;align=center;strokeColor=none;fillColor=#00BEF2;shape=mxgraph.azure.computer;pointerEvents=1;" vertex="1" parent="1">
                    <mxGeometry x="-50" y="222.5" width="70" height="60" as="geometry"/>
                </mxCell>
                <mxCell id="39" style="edgeStyle=none;html=1;" edge="1" parent="1" source="5" target="7">
                    <mxGeometry relative="1" as="geometry"/>
                </mxCell>
                <mxCell id="5" value="" style="dashed=0;outlineConnect=0;html=1;align=center;labelPosition=center;verticalLabelPosition=bottom;verticalAlign=top;shape=mxgraph.weblogos.github" vertex="1" parent="1">
                    <mxGeometry x="80" y="215" width="75" height="75" as="geometry"/>
                </mxCell>
                <mxCell id="21" value="" style="rounded=0;whiteSpace=wrap;html=1;dashed=1;fillColor=none;fontColor=#ffffff;strokeColor=#2D7600;strokeWidth=2;" vertex="1" parent="1">
                    <mxGeometry x="590" y="80" width="190" height="130" as="geometry"/>
                </mxCell>
                <mxCell id="23" value="" style="rounded=0;whiteSpace=wrap;html=1;dashed=1;fillColor=none;strokeColor=#2D7600;strokeWidth=2;" vertex="1" parent="1">
                    <mxGeometry x="945" y="80" width="190" height="140" as="geometry"/>
                </mxCell>
                <mxCell id="25" value="" style="aspect=fixed;html=1;points=[];align=center;image;fontSize=12;image=img/lib/azure2/networking/Virtual_Networks.svg;dashed=1;" vertex="1" parent="1">
                    <mxGeometry x="503" y="20" width="67" height="40" as="geometry"/>
                </mxCell>
                <mxCell id="26" value="Public Subnet1" style="text;strokeColor=none;align=center;fillColor=none;html=1;verticalAlign=middle;whiteSpace=wrap;rounded=0;dashed=1;" vertex="1" parent="1">
                    <mxGeometry x="605.16" y="80" width="90" height="30" as="geometry"/>
                </mxCell>
                <mxCell id="27" value="Public Subnet2" style="text;strokeColor=none;align=center;fillColor=none;html=1;verticalAlign=middle;whiteSpace=wrap;rounded=0;dashed=1;" vertex="1" parent="1">
                    <mxGeometry x="980" y="80" width="90" height="30" as="geometry"/>
                </mxCell>
                <mxCell id="28" value="Private Subnet1" style="text;strokeColor=none;align=center;fillColor=none;html=1;verticalAlign=middle;whiteSpace=wrap;rounded=0;dashed=1;" vertex="1" parent="1">
                    <mxGeometry x="630.25" y="277.5" width="90" height="30" as="geometry"/>
                </mxCell>
                <mxCell id="32" value="" style="aspect=fixed;html=1;points=[];align=center;image;fontSize=12;image=img/lib/azure2/networking/Virtual_Networks.svg;dashed=1;" vertex="1" parent="1">
                    <mxGeometry x="580" y="270" width="50.25" height="30" as="geometry"/>
                </mxCell>
                <mxCell id="33" value="" style="aspect=fixed;html=1;points=[];align=center;image;fontSize=12;image=img/lib/azure2/networking/Virtual_Networks.svg;dashed=1;" vertex="1" parent="1">
                    <mxGeometry x="570" y="70" width="50.25" height="30" as="geometry"/>
                </mxCell>
                <mxCell id="34" value="" style="aspect=fixed;html=1;points=[];align=center;image;fontSize=12;image=img/lib/azure2/networking/Virtual_Networks.svg;dashed=1;" vertex="1" parent="1">
                    <mxGeometry x="929.75" y="70" width="50.25" height="30" as="geometry"/>
                </mxCell>
                <mxCell id="35" value="" style="aspect=fixed;html=1;points=[];align=center;image;fontSize=12;image=img/lib/azure2/networking/Virtual_Networks.svg;dashed=1;" vertex="1" parent="1">
                    <mxGeometry x="929.75" y="270" width="50.25" height="30" as="geometry"/>
                </mxCell>
                <mxCell id="37" value="" style="verticalLabelPosition=bottom;html=1;verticalAlign=top;align=center;strokeColor=none;fillColor=#00BEF2;shape=mxgraph.azure.azure_subscription;strokeWidth=4;" vertex="1" parent="1">
                    <mxGeometry x="434.5" y="-90" width="96" height="50" as="geometry"/>
                </mxCell>
                <mxCell id="40" style="edgeStyle=none;html=1;" edge="1" parent="1" source="7">
                    <mxGeometry relative="1" as="geometry">
                        <mxPoint x="440" y="252.5" as="targetPoint"/>
                    </mxGeometry>
                </mxCell>
                <mxCell id="7" value="" style="sketch=0;aspect=fixed;html=1;points=[];align=center;image;fontSize=12;image=img/lib/mscae/Azure_Pipelines.svg;" vertex="1" parent="1">
                    <mxGeometry x="240" y="227.5" width="50" height="50" as="geometry"/>
                </mxCell>
                <mxCell id="42" value="" style="aspect=fixed;html=1;points=[];align=center;image;fontSize=12;image=img/lib/azure2/compute/Virtual_Machine.svg;strokeColor=#FFFFFF;strokeWidth=4;fillColor=none;" vertex="1" parent="1">
                    <mxGeometry x="666.3399999999999" y="355" width="53.91" height="50" as="geometry"/>
                </mxCell>
                <mxCell id="43" value="" style="aspect=fixed;html=1;points=[];align=center;image;fontSize=12;image=img/lib/azure2/compute/Virtual_Machine.svg;strokeColor=#FFFFFF;strokeWidth=4;fillColor=none;" vertex="1" parent="1">
                    <mxGeometry x="1013.04" y="360" width="53.91" height="50" as="geometry"/>
                </mxCell>
                <mxCell id="45" value="" style="aspect=fixed;html=1;points=[];align=center;image;fontSize=12;image=img/lib/azure2/compute/Availability_Sets.svg;dashed=1;strokeColor=#FF3333;strokeWidth=1;fillColor=none;" vertex="1" parent="1">
                    <mxGeometry x="850" y="340" width="50" height="50" as="geometry"/>
                </mxCell>
                <mxCell id="58" style="edgeStyle=none;html=1;entryX=0.624;entryY=0.1;entryDx=0;entryDy=0;entryPerimeter=0;" edge="1" parent="1" source="46" target="42">
                    <mxGeometry relative="1" as="geometry">
                        <mxPoint x="680" y="350" as="targetPoint"/>
                        <Array as="points">
                            <mxPoint x="866" y="260"/>
                            <mxPoint x="700" y="260"/>
                        </Array>
                    </mxGeometry>
                </mxCell>
                <mxCell id="60" style="edgeStyle=none;html=1;startArrow=none;" edge="1" parent="1" source="61" target="43">
                    <mxGeometry relative="1" as="geometry">
                        <Array as="points">
                            <mxPoint x="866" y="260"/>
                            <mxPoint x="1040" y="260"/>
                        </Array>
                    </mxGeometry>
                </mxCell>
                <mxCell id="46" value="" style="aspect=fixed;html=1;points=[];align=center;image;fontSize=12;image=img/lib/azure2/networking/Load_Balancers.svg;dashed=1;strokeColor=#FF3333;strokeWidth=1;fillColor=none;" vertex="1" parent="1">
                    <mxGeometry x="820" y="119" width="91" height="91" as="geometry"/>
                </mxCell>
                <mxCell id="29" value="Private Subnet2" style="text;strokeColor=none;align=center;fillColor=none;html=1;verticalAlign=middle;whiteSpace=wrap;rounded=0;dashed=1;" vertex="1" parent="1">
                    <mxGeometry x="976.95" y="277.5" width="90" height="30" as="geometry"/>
                </mxCell>
                <mxCell id="62" value="" style="edgeStyle=none;html=1;endArrow=none;" edge="1" parent="1" source="46" target="61">
                    <mxGeometry relative="1" as="geometry">
                        <mxPoint x="865.7382198952878" y="210" as="sourcePoint"/>
                        <mxPoint x="1039.996" y="360" as="targetPoint"/>
                        <Array as="points"/>
                    </mxGeometry>
                </mxCell>
                <mxCell id="63" style="edgeStyle=none;html=1;exitX=0;exitY=0;exitDx=0;exitDy=0;entryX=0;entryY=0.25;entryDx=0;entryDy=0;" edge="1" parent="1" source="61" target="61">
                    <mxGeometry relative="1" as="geometry"/>
                </mxCell>
                <mxCell id="61" value="Load balancer 1" style="text;strokeColor=none;align=center;fillColor=none;html=1;verticalAlign=middle;whiteSpace=wrap;rounded=0;dashed=1;strokeWidth=1;" vertex="1" parent="1">
                    <mxGeometry x="821" y="210" width="90" height="30" as="geometry"/>
                </mxCell>
                <mxCell id="64" value="&lt;font style=&quot;font-size: 16px;&quot;&gt;&lt;b&gt;AZ Zone 1&lt;/b&gt;&lt;/font&gt;" style="text;strokeColor=none;align=center;fillColor=none;html=1;verticalAlign=middle;whiteSpace=wrap;rounded=0;dashed=1;strokeWidth=1;" vertex="1" parent="1">
                    <mxGeometry x="647.63" y="-110" width="84.75" height="30" as="geometry"/>
                </mxCell>
                <mxCell id="65" value="&lt;font style=&quot;font-size: 16px;&quot;&gt;&lt;b&gt;AZ Zone 2&lt;/b&gt;&lt;/font&gt;" style="text;strokeColor=none;align=center;fillColor=none;html=1;verticalAlign=middle;whiteSpace=wrap;rounded=0;dashed=1;strokeWidth=1;" vertex="1" parent="1">
                    <mxGeometry x="1002.63" y="-110" width="84.75" height="30" as="geometry"/>
                </mxCell>
                <mxCell id="66" value="" style="rounded=0;whiteSpace=wrap;html=1;dashed=1;fillColor=none;strokeColor=#006666;strokeWidth=2;" vertex="1" parent="1">
                    <mxGeometry x="590" y="500" width="190" height="195" as="geometry"/>
                </mxCell>
                <mxCell id="67" value="" style="rounded=0;whiteSpace=wrap;html=1;dashed=1;fillColor=none;strokeColor=#006666;strokeWidth=2;" vertex="1" parent="1">
                    <mxGeometry x="939.99" y="500" width="200.01" height="195" as="geometry"/>
                </mxCell>
                <mxCell id="71" value="Webserver 1" style="text;strokeColor=none;align=center;fillColor=none;html=1;verticalAlign=middle;whiteSpace=wrap;rounded=0;dashed=1;strokeWidth=1;fontSize=16;" vertex="1" parent="1">
                    <mxGeometry x="643.3" y="405" width="100" height="30" as="geometry"/>
                </mxCell>
                <mxCell id="72" value="Webserver 2" style="text;strokeColor=none;align=center;fillColor=none;html=1;verticalAlign=middle;whiteSpace=wrap;rounded=0;dashed=1;strokeWidth=1;fontSize=16;" vertex="1" parent="1">
                    <mxGeometry x="987.3799999999999" y="410" width="100" height="30" as="geometry"/>
                </mxCell>
                <mxCell id="73" value="Availablity set" style="text;strokeColor=none;align=center;fillColor=none;html=1;verticalAlign=middle;whiteSpace=wrap;rounded=0;dashed=1;strokeWidth=1;fontSize=16;" vertex="1" parent="1">
                    <mxGeometry x="830" y="400" width="90" height="30" as="geometry"/>
                </mxCell>
            </root>
        </mxGraphModel>
    </diagram>
</mxfile>